
<svg width="698px" height="81px" viewBox="0 0 698 81" version="1.1" xmlns="http://www.w3.org/2000/svg" xmlns:xlink="http://www.w3.org/1999/xlink">
  <g id="Page-1" stroke="none" stroke-width="1" fill="none" fill-rule="evenodd">
    <g id="Group-Copy" fill="#E6B587" fill-rule="nonzero">
      <path d="M41.16,79.92 C12.2,79.92 0.2,61.84 0.2,41.04 C0.2,20.72 11.88,1.04 40.84,1.04 C68.84,1.04 81.64,17.84 81.64,39.44 C81.64,60.72 69.64,79.92 41.16,79.92 Z M42.28,74.96 C49.16,74.96 52.52,63.92 52.52,42.96 C52.52,21.04 47.56,6 39.4,6 C32.52,6 29.16,17.04 29.16,38 C29.16,60.08 34.12,74.96 42.28,74.96 Z M136.2,2.96 L164.68,2.96 L164.68,7.6 C162.6,10.64 159.72,15.12 156.84,20.24 C153.96,25.2 152.04,29.04 149.96,33.84 C143.56,48.24 136.2,64.24 129.96,78.64 L119.08,78.64 C110.76,59.28 99.4,34.96 88.84,13.36 C87.56,10.8 86.28,9.68 84.2,8.72 L82.12,7.6 L82.12,2.96 L125.8,2.96 L125.8,7.6 L122.92,8.56 C119.56,9.52 118.28,11.76 119.88,15.6 C124.84,27.6 130.28,40.88 135.56,53.2 C139.08,45.04 141.96,37.84 144.04,32.72 C145.64,29.04 144.84,26.32 143.56,23.6 C141.32,18.32 138.12,10.64 136.2,7.6 L136.2,2.96 Z M237.16,34.64 L232.84,41.68 C220.2,41.84 207.24,42 194.28,42 C197.96,55.12 207.56,62.48 220.2,62.48 C225.8,62.48 229.64,61.04 233.32,58.8 L235.72,62.16 C230.12,74 220.36,79.92 205.64,79.92 C180.84,79.92 166.28,64.24 166.28,42 C166.28,17.84 183.4,0.88 205.64,0.88 C225.8,0.88 238.12,14.8 237.16,34.64 Z M192.68,29.2 C192.68,31.76 192.84,34.32 193.16,36.72 C199.24,36.72 205,36.56 210.92,36.4 C212.04,19.12 207.88,6.32 202.76,6.32 C197.16,6.32 192.68,16.08 192.68,29.2 Z M301.16,0.88 C305.48,0.88 309.16,2.32 311.4,4.72 L302.92,36.72 L296.84,36.72 C294.92,30.48 292.68,24.56 290.44,19.6 C289.16,15.76 285.8,14.48 282.76,16.72 C281.96,17.2 281.16,17.84 280.36,18.64 C280.2,34.16 280.04,50.16 280.36,65.2 C280.36,69.2 281.32,71.28 285.16,72.08 L291.4,73.52 L291.4,78 L245.96,78 L245.96,73.52 L247.56,72.88 C250.92,71.76 252.36,69.84 252.36,65.84 C252.68,50.48 252.68,34.16 252.36,18.64 C252.36,14.48 250.76,12.4 247.08,11.6 L244.36,10.8 L244.36,6.32 C253.8,4.72 263.24,3.12 273.8,1.04 L277.64,1.04 L279.56,12.4 L282.28,10 C289.64,3.92 295.56,0.88 301.16,0.88 Z M353.96,80.08 C328.68,80.08 314.6,63.76 314.6,42.8 C314.6,18.8 332.36,1.2 356.52,1.2 C368.2,1.2 377.48,4.08 383.88,7.76 L375.08,37.36 L370.12,37.36 C366.28,30.8 361.48,20.24 357.32,12.56 C355.24,8.56 353.8,7.12 351.88,7.12 C345.8,7.12 341,17.36 341,30.16 C341,49.2 351.72,62.48 368.36,62.48 C373.32,62.48 378.28,61.04 381.48,58.8 L383.88,62.32 C378.12,73.84 368.2,80.08 353.96,80.08 Z M433.8,79.92 C404.84,79.92 392.84,61.84 392.84,41.04 C392.84,20.72 404.52,1.04 433.48,1.04 C461.48,1.04 474.28,17.84 474.28,39.44 C474.28,60.72 462.28,79.92 433.8,79.92 Z M434.92,74.96 C441.8,74.96 445.16,63.92 445.16,42.96 C445.16,21.04 440.2,6 432.04,6 C425.16,6 421.8,17.04 421.8,38 C421.8,60.08 426.76,74.96 434.92,74.96 Z M616.84,72.88 L618.6,73.52 L618.6,78 L577.16,78 L577.16,73.52 L579.4,72.88 C582.6,71.92 584.2,69.84 584.2,65.68 C584.36,52.24 584.36,38.96 584.2,26.48 C584.04,18.16 580.84,13.68 574.12,13.68 C570.76,13.68 567.24,15.28 564.04,17.36 C564.52,19.12 564.68,21.04 564.68,23.12 C564.52,36.88 564.52,51.12 564.68,65.68 C564.84,69.84 566.12,71.92 569.32,72.88 L571.56,73.52 L571.56,78 L529.96,78 L529.96,73.52 L532.2,72.88 C535.4,71.92 536.84,69.84 536.84,65.68 C537.16,52.24 537,38.96 536.84,26.48 C536.68,18.16 533.48,13.68 526.76,13.68 C523.56,13.68 520.36,15.12 517.32,16.88 C517.16,33.2 517,50 517.32,65.84 C517.32,70 518.6,71.92 521.96,72.88 L524.2,73.52 L524.2,78 L482.92,78 L482.92,73.52 L484.52,72.88 C488.04,71.6 489.32,69.84 489.32,65.68 C489.64,50.48 489.64,34 489.32,18.48 C489.32,14.48 487.4,12.4 484.04,11.6 L481.32,10.8 L481.32,6.32 C490.92,4.72 500.2,3.12 510.92,1.04 L514.76,1.04 L516.52,10.8 L518.92,9.36 C524.84,5.84 532.36,1.04 542.12,1.04 C551.4,1.04 558.6,5.04 562.12,11.92 L566.28,9.36 C572.04,5.84 579.72,1.04 589.48,1.04 C602.92,1.04 612.2,9.84 612.04,23.12 C611.88,36.88 611.88,51.12 612.04,65.68 C612.2,69.84 613.48,71.76 616.84,72.88 Z M697.8,34.64 L693.48,41.68 C680.84,41.84 667.88,42 654.92,42 C658.6,55.12 668.2,62.48 680.84,62.48 C686.44,62.48 690.28,61.04 693.96,58.8 L696.36,62.16 C690.76,74 681,79.92 666.28,79.92 C641.48,79.92 626.92,64.24 626.92,42 C626.92,17.84 644.04,0.88 666.28,0.88 C686.44,0.88 698.76,14.8 697.8,34.64 Z M653.32,29.2 C653.32,31.76 653.48,34.32 653.8,36.72 C659.88,36.72 665.64,36.56 671.56,36.4 C672.68,19.12 668.52,6.32 663.4,6.32 C657.8,6.32 653.32,16.08 653.32,29.2 Z" id="overcome"></path>
    </g>
  </g>
</svg>